<svg xmlns="http://www.w3.org/2000/svg" xmlns:xlink="http://www.w3.org/1999/xlink" viewBox="0 0 15.8 22.2"><defs><style>.cls-1{fill:none;}.cls-2{isolation:isolate;}.cls-3{opacity:0.5;}.cls-4{clip-path:url(#clip-path);}.cls-5{clip-path:url(#clip-path-2);}.cls-6,.cls-7{mix-blend-mode:multiply;}.cls-7{opacity:0.2;}.cls-8{fill:#999;}</style><clipPath id="clip-path"><rect class="cls-1" x="-153.37" y="211.68" width="958.22" height="450"/></clipPath><clipPath id="clip-path-2"><path class="cls-1" d="M499.19,759.19V573.61S-19.69,44.42-23.43,46.18L-177.17,119V759.19Z"/></clipPath></defs><title>B22_Golux_</title><g class="cls-2"><g id="content"><path class="cls-8" d="M12.55,22.2H3.25A3.26,3.26,0,0,1,0,19v-5a3.26,3.26,0,0,1,3.25-3.25h9.3a3.26,3.26,0,0,1,3.25,3.25v5A3.26,3.26,0,0,1,12.55,22.2Zm-9.3-11A2.75,2.75,0,0,0,.5,13.92v5A2.75,2.75,0,0,0,3.25,21.7h9.3A2.75,2.75,0,0,0,15.3,19v-5a2.76,2.76,0,0,0-2.75-2.75Z"/><path class="cls-8" d="M8.13,7.26a3.63,3.63,0,1,1,3.63-3.63A3.64,3.64,0,0,1,8.13,7.26ZM8.13.5a3.13,3.13,0,1,0,3.13,3.13A3.13,3.13,0,0,0,8.13.5Z"/></g></g></svg>